<?xml version="1.0" encoding="UTF-8"?>
<svg width="752pt" height="752pt" version="1.1" viewBox="0 0 752 752" xmlns="http://www.w3.org/2000/svg">
 <path d="m507.18 355.16c-10.891 0-17.996 1.8945-26.047 6.1562 14.207-35.992 61.566-97.086 61.566-106.55 0-4.2617-1.8945-5.2109-6.1562-5.2109-37.414 0-119.82 95.191-119.82 170.02 0 33.625 15.156 68.668 59.672 68.668 50.199 0 77.668-45.938 77.668-82.875-0.47656-27.941-14.684-50.199-46.887-50.199zm-223.06 0c-10.891 0-17.996 1.8945-26.047 6.1562 14.207-35.992 61.566-97.086 61.566-106.55 0-4.2617-1.8945-5.2109-6.1562-5.2109-37.414 0-119.82 95.191-119.82 170.02 0 33.625 15.156 68.668 59.672 68.668 50.199 0 77.668-45.938 77.668-82.875-0.47266-27.941-14.207-50.199-46.887-50.199z"/>
</svg>
